<?xml version="1.0" standalone="no"?>
<!DOCTYPE svg PUBLIC "-//W3C//DTD SVG 20010904//EN"
 "http://www.w3.org/TR/2001/REC-SVG-20010904/DTD/svg10.dtd">
<svg version="1.0" xmlns="http://www.w3.org/2000/svg"
 width="256.000000pt" height="256.000000pt" viewBox="0 0 256.000000 256.000000"
 preserveAspectRatio="xMidYMid meet">
<metadata>
Created by potrace 1.11, written by Peter Selinger 2001-2013
</metadata>
<g transform="translate(0.000000,256.000000) scale(0.100000,-0.100000)"
fill="#000000" stroke="none">
<path d="M652 2519 c-24 -12 -54 -36 -67 -53 -49 -65 -55 -94 -55 -276 0 -97
-4 -170 -9 -170 -5 0 -27 -18 -49 -39 -76 -76 -73 -29 -70 -926 2 -440 5 -807
8 -815 3 -8 13 -23 22 -34 21 -23 24 -41 6 -30 -9 6 -9 3 0 -9 8 -9 19 -15 25
-14 7 1 11 -4 9 -11 -1 -8 2 -11 7 -8 15 10 43 -5 37 -20 -3 -9 0 -11 11 -7
12 5 14 3 8 -8 -6 -11 -5 -12 5 -2 9 8 19 9 32 2 10 -5 18 -7 18 -3 0 3 8 0
17 -7 9 -8 14 -9 10 -3 -10 18 46 12 61 -6 10 -13 11 -12 5 4 -5 15 -3 17 7
11 8 -5 32 -7 55 -6 106 7 123 7 118 -5 -5 -14 22 -13 34 1 5 4 1 5 -7 0 -9
-5 -12 -4 -7 1 11 11 68 14 61 3 -2 -4 -12 -6 -22 -3 -14 5 -15 4 -2 -5 11 -7
21 -6 38 5 20 13 23 13 28 0 3 -8 14 -14 25 -13 11 1 17 7 15 13 -6 16 35 9
44 -7 5 -7 9 -6 13 4 6 17 28 17 48 0 8 -6 23 -9 34 -7 11 1 22 -2 26 -7 4 -7
8 -5 12 4 4 11 -2 14 -28 12 -19 -1 -32 1 -30 5 7 12 117 3 125 -10 5 -8 9 -9
11 -1 2 6 18 12 36 15 25 2 30 0 25 -13 -5 -14 -4 -14 12 -1 21 16 49 23 40 9
-3 -5 -11 -6 -17 -3 -7 4 -8 3 -4 -1 12 -14 37 -14 37 -1 0 12 38 14 57 3 6
-4 14 -1 16 5 4 9 6 8 6 -3 1 -9 8 -16 16 -16 9 0 11 4 6 11 -7 8 5 11 39 11
34 0 46 -3 39 -11 -5 -7 -3 -11 6 -11 8 0 15 6 15 12 0 8 11 11 28 8 31 -5 22
-5 127 0 61 3 84 0 98 -12 15 -13 17 -13 12 0 -8 22 131 21 146 -1 9 -12 10
-12 5 4 -5 15 -2 17 14 13 32 -8 47 15 44 67 -2 26 1 46 7 46 6 0 7 -4 4 -10
-3 -5 -1 -10 5 -10 12 0 5 50 -8 59 -14 10 -10 142 4 137 13 -5 13 19 -1 31
-4 4 -5 2 -1 -5 4 -6 2 -12 -4 -12 -6 0 -10 8 -8 17 2 10 10 17 17 15 7 -1 10
2 6 8 -3 6 -10 8 -15 5 -4 -3 -8 31 -8 75 l0 81 66 -3 67 -3 -2 700 c-1 385
-3 724 -3 753 0 45 -3 55 -20 59 -19 5 -20 16 -22 217 l-3 211 -735 3 c-732 2
-735 2 -778 -19z m1443 -2289 c3 -5 1 -10 -4 -10 -6 0 -11 5 -11 10 0 6 2 10
4 10 3 0 8 -4 11 -10z"/>
<path d="M2090 320 c0 -5 5 -10 10 -10 6 0 10 5 10 10 0 6 -4 10 -10 10 -5 0
-10 -4 -10 -10z"/>
<path d="M2125 300 c-4 -6 -10 -8 -15 -5 -14 9 -23 -16 -11 -28 9 -9 10 -7 5
8 -7 18 -6 19 10 6 15 -12 17 -12 14 0 -2 8 3 13 10 11 8 -1 11 2 7 8 -8 13
-12 13 -20 0z"/>
<path d="M2115 251 c-3 -5 -2 -12 3 -15 5 -3 9 1 9 9 0 17 -3 19 -12 6z"/>
<path d="M479 113 c-13 -16 -12 -17 4 -4 9 7 17 15 17 17 0 8 -8 3 -21 -13z"/>
<path d="M1090 81 c0 -6 4 -13 10 -16 6 -3 7 1 4 9 -7 18 -14 21 -14 7z"/>
<path d="M1530 81 c0 -6 4 -13 10 -16 6 -3 7 1 4 9 -7 18 -14 21 -14 7z"/>
<path d="M1640 86 c0 -2 8 -10 18 -17 15 -13 16 -12 3 4 -13 16 -21 21 -21 13z"/>
<path d="M1710 80 c0 -5 5 -10 11 -10 5 0 7 5 4 10 -3 6 -8 10 -11 10 -2 0 -4
-4 -4 -10z"/>
<path d="M1806 78 c3 -5 10 -6 15 -3 13 9 11 12 -6 12 -8 0 -12 -4 -9 -9z"/>
<path d="M1946 82 c-2 -4 4 -8 14 -8 10 0 16 4 14 8 -3 4 -9 8 -14 8 -5 0 -11
-4 -14 -8z"/>
</g>
</svg>
